<svg xmlns="http://www.w3.org/2000/svg" xmlns:xlink="http://www.w3.org/1999/xlink" width="70" height="70" viewBox="0 0 70 70">
  <defs>
    <filter id="패스_13" x="0" y="0" width="70" height="70" filterUnits="userSpaceOnUse">
      <feOffset dx="2" dy="2" input="SourceAlpha"/>
      <feGaussianBlur stdDeviation="2" result="blur"/>
      <feFlood flood-opacity="0.102"/>
      <feComposite operator="in" in2="blur"/>
      <feComposite in="SourceGraphic"/>
    </filter>
  </defs>
  <g id="삼영로고" transform="translate(4 4)">
    <g transform="matrix(1, 0, 0, 1, -4, -4)" filter="url(#패스_13)">
      <path id="패스_13-2" data-name="패스 13" d="M1284.958,373.905c-.276-.008-.551-.021-.828-.021s-.554.013-.83.021a28.994,28.994,0,0,0-24.559,43,16.1,16.1,0,0,0,2.656,3.978,28.981,28.981,0,0,0,45.464,0,16.1,16.1,0,0,0,2.656-3.978,28.993,28.993,0,0,0-24.56-43Zm26.089,28.979a27.153,27.153,0,0,1-.3,4.051,16.128,16.128,0,0,0-11.187-12.316A16.1,16.1,0,0,0,1295.3,378.4,26.915,26.915,0,0,1,1311.047,402.884Zm-5.681,16.529a13.974,13.974,0,0,1-19.781,1.067,16.1,16.1,0,0,0,3.16-15.06,16.144,16.144,0,0,0,10.081-8.843,13.989,13.989,0,0,1,8.792,19.451A26.946,26.946,0,0,1,1305.365,419.413Zm-42.472,0a26.913,26.913,0,0,1-2.252-3.387,13.988,13.988,0,0,1,8.792-19.45,16.144,16.144,0,0,0,10.081,8.843,16.1,16.1,0,0,0,3.16,15.06,13.974,13.974,0,0,1-19.781-1.066Zm23.015-15.521a12.667,12.667,0,0,1-3.558,0,14.036,14.036,0,0,1,1.779-2.782A14.1,14.1,0,0,1,1285.909,403.893Zm-.324-4.274a13.762,13.762,0,0,1,11.136-3.472,14.042,14.042,0,0,1-8.707,7.315A16.126,16.126,0,0,0,1285.584,399.619Zm-5.339,3.843a14.045,14.045,0,0,1-8.707-7.315,13.764,13.764,0,0,1,11.137,3.472A16.09,16.09,0,0,0,1280.245,403.461Zm.668,6.588a14.014,14.014,0,0,1,.629-4.164,16.1,16.1,0,0,0,5.176,0,14.047,14.047,0,0,1-2.588,13.1A13.969,13.969,0,0,1,1280.913,410.049Zm3.217-34.083c.073,0,.146.005.22.006a14.031,14.031,0,0,1,13.179,18.181,16.216,16.216,0,0,0-2.588-.21,16.042,16.042,0,0,0-10.811,4.169,16.1,16.1,0,0,0-13.4-3.959,14.03,14.03,0,0,1,13.179-18.181C1283.983,375.972,1284.056,375.966,1284.13,375.966Zm-11.175,2.431a16.1,16.1,0,0,0-4.253,16.221,16.127,16.127,0,0,0-11.186,12.316,26.939,26.939,0,0,1,15.439-28.538Zm11.175,51.4a26.789,26.789,0,0,1-14.089-3.981,16.13,16.13,0,0,0,14.089-3.835,16.128,16.128,0,0,0,14.088,3.835A26.787,26.787,0,0,1,1284.13,429.8Z" transform="translate(-1251.13 -369.88)" fill="#ffa332"/>
    </g>
  </g>
</svg>
